<mxfile host="app.diagrams.net" modified="2024-07-19T08:16:24.189Z" agent="Mozilla/5.0 (Windows NT 10.0; Win64; x64) AppleWebKit/537.36 (KHTML, like Gecko) Chrome/126.0.0.0 Safari/537.36" etag="k9u4A4hERUYbvTOlDdVU" version="24.7.1" type="device">
  <diagram name="Page-1" id="l6Z0VSU7gt3zPweZW1Xb">
    <mxGraphModel dx="954" dy="638" grid="1" gridSize="10" guides="1" tooltips="1" connect="1" arrows="1" fold="1" page="1" pageScale="1" pageWidth="827" pageHeight="1169" math="0" shadow="0">
      <root>
        <mxCell id="0" />
        <mxCell id="1" parent="0" />
        <mxCell id="JhsYu6i-XUnFi-7hQOqF-1" value="" style="rounded=0;whiteSpace=wrap;html=1;" vertex="1" parent="1">
          <mxGeometry x="35" y="100" width="10" height="1010" as="geometry" />
        </mxCell>
        <mxCell id="JhsYu6i-XUnFi-7hQOqF-3" value="" style="shape=mxgraph.signs.people.man_1;html=1;pointerEvents=1;fillColor=#000000;strokeColor=none;verticalLabelPosition=bottom;verticalAlign=top;align=center;" vertex="1" parent="1">
          <mxGeometry x="30" y="20" width="20" height="50" as="geometry" />
        </mxCell>
        <mxCell id="JhsYu6i-XUnFi-7hQOqF-4" value="Frontend" style="rounded=1;whiteSpace=wrap;html=1;" vertex="1" parent="1">
          <mxGeometry x="170" y="20" width="110" height="30" as="geometry" />
        </mxCell>
        <mxCell id="JhsYu6i-XUnFi-7hQOqF-5" value="backend" style="rounded=1;whiteSpace=wrap;html=1;" vertex="1" parent="1">
          <mxGeometry x="359" y="20" width="110" height="30" as="geometry" />
        </mxCell>
        <mxCell id="JhsYu6i-XUnFi-7hQOqF-6" value="Database" style="rounded=1;whiteSpace=wrap;html=1;" vertex="1" parent="1">
          <mxGeometry x="530" y="20" width="110" height="30" as="geometry" />
        </mxCell>
      </root>
    </mxGraphModel>
  </diagram>
</mxfile>
